<?xml version="1.0" standalone="no"?>
<!DOCTYPE svg PUBLIC "-//W3C//DTD SVG 20010904//EN"
 "http://www.w3.org/TR/2001/REC-SVG-20010904/DTD/svg10.dtd">
<svg version="1.0" xmlns="http://www.w3.org/2000/svg"
 width="512.000000pt" height="512.000000pt" viewBox="0 0 512.000000 512.000000"
 preserveAspectRatio="xMidYMid meet">

<g transform="translate(0.000000,512.000000) scale(0.100000,-0.100000)"
fill="#000000" stroke="none">
<path d="M1326 4628 c-46 -17 -1198 -657 -1236 -687 -19 -15 -46 -48 -60 -72
l-25 -44 0 -705 c0 -703 0 -705 22 -745 11 -22 34 -52 50 -66 31 -29 1197
-678 1252 -697 47 -17 108 -14 157 6 23 9 130 66 238 126 l196 109 0 36 c0 34
18 115 35 153 4 10 -88 -35 -227 -112 -128 -72 -236 -130 -240 -130 -5 0 -8
287 -8 638 l1 637 570 320 c314 176 575 322 580 323 5 2 9 -88 9 -217 l0 -220
43 42 c24 23 61 51 81 62 l37 20 -3 210 c-3 193 -5 213 -25 250 -11 22 -34 52
-50 66 -31 29 -1197 678 -1252 697 -41 14 -105 14 -145 0z m647 -454 c304
-168 556 -309 560 -313 4 -5 -249 -152 -563 -329 l-571 -321 -582 309 c-320
170 -583 313 -584 317 -3 12 1138 642 1165 642 12 1 271 -137 575 -305z m-923
-959 l265 -140 3 -638 c1 -350 -1 -637 -4 -637 -18 0 -1103 608 -1126 631
l-28 27 0 615 0 615 313 -166 c171 -91 431 -229 577 -307z"/>
<path d="M1313 3983 c-52 -18 -93 -64 -93 -105 0 -60 88 -118 180 -118 94 0
180 58 180 120 0 23 -9 41 -33 65 -54 54 -148 69 -234 38z"/>
<path d="M330 3242 c-42 -42 -56 -94 -45 -164 10 -58 69 -118 115 -118 24 0
42 10 70 38 42 42 56 94 45 164 -10 58 -69 118 -115 118 -24 0 -42 -10 -70
-38z"/>
<path d="M630 2842 c-42 -42 -56 -94 -45 -164 10 -58 69 -118 115 -118 24 0
42 10 70 38 42 42 56 94 45 164 -10 58 -69 118 -115 118 -24 0 -42 -10 -70
-38z"/>
<path d="M930 2442 c-42 -42 -56 -94 -45 -164 10 -58 69 -118 115 -118 46 0
105 60 115 118 11 70 -3 122 -45 164 -51 52 -89 52 -140 0z"/>
<path d="M2290 3242 c-42 -42 -56 -94 -45 -164 10 -58 69 -118 115 -118 24 0
42 10 70 38 42 42 56 94 45 164 -10 58 -69 118 -115 118 -24 0 -42 -10 -70
-38z"/>
<path d="M2900 3271 c-44 -14 -84 -38 -111 -68 -29 -31 -678 -1197 -697 -1252
-15 -43 -15 -99 0 -142 19 -55 668 -1221 697 -1252 14 -16 44 -39 66 -50 40
-22 42 -22 745 -22 l705 0 44 25 c24 14 57 41 72 60 33 42 671 1192 687 1239
15 43 15 99 0 141 -16 47 -654 1198 -687 1240 -15 19 -48 46 -72 60 l-44 25
-690 2 c-379 1 -701 -2 -715 -6z m961 -728 l-307 -578 -637 -3 c-350 -1 -637
1 -637 5 0 20 607 1102 632 1126 l28 27 614 0 614 0 -307 -577z m779 -63 c173
-314 316 -581 318 -594 2 -17 -92 -197 -303 -578 -169 -304 -310 -557 -314
-561 -5 -4 -153 249 -329 563 l-321 571 293 552 c161 304 301 567 310 585 9
17 20 32 24 32 4 -1 149 -257 322 -570z m-765 -1251 c176 -313 322 -574 323
-579 5 -15 -1240 -13 -1271 1 -17 8 -108 162 -335 573 -172 309 -312 565 -312
569 0 4 287 7 638 7 l637 -1 320 -570z"/>
<path d="M3534 2989 c-44 -13 -94 -72 -94 -111 0 -44 61 -103 118 -113 70 -11
122 3 164 45 49 48 50 85 7 134 -44 51 -118 68 -195 45z"/>
<path d="M3134 2689 c-44 -13 -94 -72 -94 -111 0 -44 61 -103 118 -113 70 -11
122 3 164 45 49 48 50 85 7 134 -44 51 -118 68 -195 45z"/>
<path d="M2734 2389 c-44 -13 -94 -72 -94 -111 0 -44 61 -103 118 -113 70 -11
122 3 164 45 49 48 50 85 7 134 -44 51 -118 68 -195 45z"/>
<path d="M4295 2027 c-35 -35 -55 -89 -55 -147 0 -92 58 -180 118 -180 63 0
122 88 122 180 0 56 -28 127 -62 155 -42 35 -82 33 -123 -8z"/>
<path d="M2734 1629 c-44 -13 -94 -72 -94 -111 0 -44 61 -103 118 -113 70 -11
122 3 164 45 49 48 50 85 7 134 -44 51 -118 68 -195 45z"/>
<path d="M3534 1029 c-44 -13 -94 -72 -94 -111 0 -44 61 -103 118 -113 70 -11
122 3 164 45 49 48 50 85 7 134 -44 51 -118 68 -195 45z"/>
<path d="M1690 2442 c-42 -42 -56 -94 -45 -164 10 -58 69 -118 115 -118 24 0
42 10 70 38 42 42 56 94 45 164 -10 58 -69 118 -115 118 -24 0 -42 -10 -70
-38z"/>
</g>
</svg>
